<?xml version="1.0" encoding="UTF-8" standalone="no"?>
<!-- Created with Inkscape (http://www.inkscape.org/) -->

<svg
   width="24mm"
   height="24mm"
   viewBox="0 0 24 24"
   version="1.1"
   id="svg887"
   inkscape:version="1.2 (dc2aedaf03, 2022-05-15)"
   sodipodi:docname="qr-code.svg"
   inkscape:export-filename="qr-code.png"
   inkscape:export-xdpi="300"
   inkscape:export-ydpi="300"
   xmlns:inkscape="http://www.inkscape.org/namespaces/inkscape"
   xmlns:sodipodi="http://sodipodi.sourceforge.net/DTD/sodipodi-0.dtd"
   xmlns="http://www.w3.org/2000/svg"
   xmlns:svg="http://www.w3.org/2000/svg">
  <sodipodi:namedview
     id="namedview889"
     pagecolor="#ffffff"
     bordercolor="#666666"
     borderopacity="1.0"
     inkscape:showpageshadow="2"
     inkscape:pageopacity="0.0"
     inkscape:pagecheckerboard="0"
     inkscape:deskcolor="#d1d1d1"
     inkscape:document-units="mm"
     showgrid="false"
     inkscape:zoom="5.9868374"
     inkscape:cx="15.534078"
     inkscape:cy="54.118724"
     inkscape:window-width="1920"
     inkscape:window-height="974"
     inkscape:window-x="-11"
     inkscape:window-y="-11"
     inkscape:window-maximized="1"
     inkscape:current-layer="layer1" />
  <defs
     id="defs884" />
  <g
     inkscape:label="Layer 1"
     inkscape:groupmode="layer"
     id="layer1">
    <g
       id="elements"
       transform="matrix(0.09313328,0,0,0.09313328,-3.2203974,-3.2203974)">
      <path
         style="fill:#000000"
         d="m 48,48 h 8 v 8 h -8 z m 8,0 h 8 v 8 h -8 z m 8,0 h 8 v 8 h -8 z m 8,0 h 8 v 8 h -8 z m 8,0 h 8 v 8 h -8 z m 8,0 h 8 v 8 h -8 z m 8,0 h 8 v 8 h -8 z m 32,0 h 8 v 8 h -8 z m 16,0 h 8 v 8 h -8 z m 32,0 h 8 v 8 h -8 z m 24,0 h 8 v 8 h -8 z m 8,0 h 8 v 8 h -8 z m 16,0 h 8 v 8 h -8 z m 8,0 h 8 v 8 h -8 z m 8,0 h 8 v 8 h -8 z m 8,0 h 8 v 8 h -8 z m 8,0 h 8 v 8 h -8 z m 8,0 h 8 v 8 h -8 z m 8,0 h 8 v 8 h -8 z M 48,56 h 8 v 8 h -8 z m 48,0 h 8 v 8 h -8 z m 16,0 h 8 v 8 h -8 z m 16,0 h 8 v 8 h -8 z m 40,0 h 8 v 8 h -8 z m 40,0 h 8 v 8 h -8 z m 16,0 h 8 v 8 h -8 z m 48,0 h 8 v 8 h -8 z M 48,64 h 8 v 8 h -8 z m 16,0 h 8 v 8 h -8 z m 8,0 h 8 v 8 h -8 z m 8,0 h 8 v 8 h -8 z m 16,0 h 8 v 8 h -8 z m 48,0 h 8 v 8 h -8 z m 16,0 h 8 v 8 h -8 z m 16,0 h 8 v 8 h -8 z m 24,0 h 8 v 8 h -8 z m 8,0 h 8 v 8 h -8 z m 16,0 h 8 v 8 h -8 z m 16,0 h 8 v 8 h -8 z m 8,0 h 8 v 8 h -8 z m 8,0 h 8 v 8 h -8 z m 16,0 h 8 v 8 h -8 z M 48,72 h 8 v 8 h -8 z m 16,0 h 8 v 8 h -8 z m 8,0 h 8 v 8 h -8 z m 8,0 h 8 v 8 h -8 z m 16,0 h 8 v 8 h -8 z m 16,0 h 8 v 8 h -8 z m 8,0 h 8 v 8 h -8 z m 8,0 h 8 v 8 h -8 z m 16,0 h 8 v 8 h -8 z m 8,0 h 8 v 8 h -8 z m 8,0 h 8 v 8 h -8 z m 24,0 h 8 v 8 h -8 z m 16,0 h 8 v 8 h -8 z m 24,0 h 8 v 8 h -8 z m 16,0 h 8 v 8 h -8 z m 8,0 h 8 v 8 h -8 z m 8,0 h 8 v 8 h -8 z m 16,0 h 8 v 8 h -8 z M 48,80 h 8 v 8 h -8 z m 16,0 h 8 v 8 h -8 z m 8,0 h 8 v 8 h -8 z m 8,0 h 8 v 8 h -8 z m 16,0 h 8 v 8 h -8 z m 24,0 h 8 v 8 h -8 z m 40,0 h 8 v 8 h -8 z m 40,0 h 8 v 8 h -8 z m 8,0 h 8 v 8 h -8 z m 16,0 h 8 v 8 h -8 z m 16,0 h 8 v 8 h -8 z m 8,0 h 8 v 8 h -8 z m 8,0 h 8 v 8 h -8 z m 16,0 h 8 v 8 h -8 z M 48,88 h 8 v 8 h -8 z m 48,0 h 8 v 8 h -8 z m 16,0 h 8 v 8 h -8 z m 8,0 h 8 v 8 h -8 z m 16,0 h 8 v 8 h -8 z m 8,0 h 8 v 8 h -8 z m 24,0 h 8 v 8 h -8 z m 8,0 h 8 v 8 h -8 z m 48,0 h 8 v 8 h -8 z m 48,0 h 8 v 8 h -8 z M 48,96 h 8 v 8 h -8 z m 8,0 h 8 v 8 h -8 z m 8,0 h 8 v 8 h -8 z m 8,0 h 8 v 8 h -8 z m 8,0 h 8 v 8 h -8 z m 8,0 h 8 v 8 h -8 z m 8,0 h 8 v 8 h -8 z m 16,0 h 8 v 8 h -8 z m 16,0 h 8 v 8 h -8 z m 16,0 h 8 v 8 h -8 z m 16,0 h 8 v 8 h -8 z m 16,0 h 8 v 8 h -8 z m 16,0 h 8 v 8 h -8 z m 16,0 h 8 v 8 h -8 z m 16,0 h 8 v 8 h -8 z m 8,0 h 8 v 8 h -8 z m 8,0 h 8 v 8 h -8 z m 8,0 h 8 v 8 h -8 z m 8,0 h 8 v 8 h -8 z m 8,0 h 8 v 8 h -8 z m 8,0 h 8 v 8 h -8 z m -152,8 h 8 v 8 h -8 z m 8,0 h 8 v 8 h -8 z m 8,0 h 8 v 8 h -8 z m 32,0 h 8 v 8 h -8 z m 24,0 h 8 v 8 h -8 z m -144,8 h 8 v 8 h -8 z m 8,0 h 8 v 8 h -8 z m 8,0 h 8 v 8 h -8 z m 8,0 h 8 v 8 h -8 z m 8,0 h 8 v 8 h -8 z m 16,0 h 8 v 8 h -8 z m 8,0 h 8 v 8 h -8 z m 8,0 h 8 v 8 h -8 z m 8,0 h 8 v 8 h -8 z m 16,0 h 8 v 8 h -8 z m 16,0 h 8 v 8 h -8 z m 8,0 h 8 v 8 h -8 z m 16,0 h 8 v 8 h -8 z m 8,0 h 8 v 8 h -8 z m 16,0 h 8 v 8 h -8 z m 8,0 h 8 v 8 h -8 z m 8,0 h 8 v 8 h -8 z m 16,0 h 8 v 8 h -8 z m 16,0 h 8 v 8 h -8 z m 16,0 h 8 v 8 h -8 z m -184,8 h 8 v 8 h -8 z m 8,0 h 8 v 8 h -8 z m 24,0 h 8 v 8 h -8 z m 16,0 h 8 v 8 h -8 z m 16,0 h 8 v 8 h -8 z m 16,0 h 8 v 8 h -8 z m 16,0 h 8 v 8 h -8 z m 24,0 h 8 v 8 h -8 z m 8,0 h 8 v 8 h -8 z m 16,0 h 8 v 8 h -8 z m 8,0 h 8 v 8 h -8 z m 8,0 h 8 v 8 h -8 z m 32,0 h 8 v 8 h -8 z m -216,8 h 8 v 8 h -8 z m 16,0 h 8 v 8 h -8 z m 16,0 h 8 v 8 h -8 z m 8,0 h 8 v 8 h -8 z m 32,0 h 8 v 8 h -8 z m 40,0 h 8 v 8 h -8 z m 24,0 h 8 v 8 h -8 z m 16,0 h 8 v 8 h -8 z m 24,0 h 8 v 8 h -8 z m 8,0 h 8 v 8 h -8 z m -184,8 h 8 v 8 h -8 z m 16,0 h 8 v 8 h -8 z m 16,0 h 8 v 8 h -8 z m 56,0 h 8 v 8 h -8 z m 32,0 h 8 v 8 h -8 z m 16,0 h 8 v 8 h -8 z m 8,0 h 8 v 8 h -8 z m 8,0 h 8 v 8 h -8 z m 8,0 h 8 v 8 h -8 z m 16,0 h 8 v 8 h -8 z m 8,0 h 8 v 8 h -8 z m 8,0 h 8 v 8 h -8 z m 16,0 h 8 v 8 h -8 z m -184,8 h 8 v 8 h -8 z m 8,0 h 8 v 8 h -8 z m 8,0 h 8 v 8 h -8 z m 16,0 h 8 v 8 h -8 z m 8,0 h 8 v 8 h -8 z m 8,0 h 8 v 8 h -8 z m 16,0 h 8 v 8 h -8 z m 8,0 h 8 v 8 h -8 z m 16,0 h 8 v 8 h -8 z m 16,0 h 8 v 8 h -8 z m 16,0 h 8 v 8 h -8 z m 32,0 h 8 v 8 h -8 z m 16,0 h 8 v 8 h -8 z m 8,0 h 8 v 8 h -8 z m -208,8 h 8 v 8 h -8 z m 16,0 h 8 v 8 h -8 z m 8,0 h 8 v 8 h -8 z m 16,0 h 8 v 8 h -8 z m 24,0 h 8 v 8 h -8 z m 8,0 h 8 v 8 h -8 z m 32,0 h 8 v 8 h -8 z m 24,0 h 8 v 8 h -8 z m 24,0 h 8 v 8 h -8 z m 8,0 h 8 v 8 h -8 z m 8,0 h 8 v 8 h -8 z m 8,0 h 8 v 8 h -8 z m 8,0 h 8 v 8 h -8 z m 8,0 h 8 v 8 h -8 z m 32,0 h 8 v 8 h -8 z m -216,8 h 8 v 8 h -8 z m 32,0 h 8 v 8 h -8 z m 8,0 h 8 v 8 h -8 z m 8,0 h 8 v 8 h -8 z m 24,0 h 8 v 8 h -8 z m 8,0 h 8 v 8 h -8 z m 8,0 h 8 v 8 h -8 z m 8,0 h 8 v 8 h -8 z m 8,0 h 8 v 8 h -8 z m 8,0 h 8 v 8 h -8 z m 8,0 h 8 v 8 h -8 z m 40,0 h 8 v 8 h -8 z m 24,0 h 8 v 8 h -8 z m 8,0 h 8 v 8 h -8 z m 8,0 h 8 v 8 h -8 z m -192,8 h 8 v 8 h -8 z m 8,0 h 8 v 8 h -8 z m 16,0 h 8 v 8 h -8 z m 32,0 h 8 v 8 h -8 z m 16,0 h 8 v 8 h -8 z m 24,0 h 8 v 8 h -8 z m 8,0 h 8 v 8 h -8 z m 32,0 h 8 v 8 h -8 z m 16,0 h 8 v 8 h -8 z m 8,0 h 8 v 8 h -8 z m 16,0 h 8 v 8 h -8 z m 24,0 h 8 v 8 h -8 z m -216,8 h 8 v 8 h -8 z m 8,0 h 8 v 8 h -8 z m 16,0 h 8 v 8 h -8 z m 8,0 h 8 v 8 h -8 z m 8,0 h 8 v 8 h -8 z m 8,0 h 8 v 8 h -8 z m 16,0 h 8 v 8 h -8 z m 8,0 h 8 v 8 h -8 z m 16,0 h 8 v 8 h -8 z m 48,0 h 8 v 8 h -8 z m 48,0 h 8 v 8 h -8 z m 16,0 h 8 v 8 h -8 z m 8,0 h 8 v 8 h -8 z m -208,8 h 8 v 8 h -8 z m 24,0 h 8 v 8 h -8 z m 8,0 h 8 v 8 h -8 z m 8,0 h 8 v 8 h -8 z m 56,0 h 8 v 8 h -8 z m 8,0 h 8 v 8 h -8 z m 24,0 h 8 v 8 h -8 z m 24,0 h 8 v 8 h -8 z m 8,0 h 8 v 8 h -8 z m 8,0 h 8 v 8 h -8 z m 8,0 h 8 v 8 h -8 z m 8,0 h 8 v 8 h -8 z m 8,0 h 8 v 8 h -8 z m 16,0 h 8 v 8 h -8 z m 16,0 h 8 v 8 h -8 z m -224,8 h 8 v 8 h -8 z m 16,0 h 8 v 8 h -8 z m 8,0 h 8 v 8 h -8 z m 8,0 h 8 v 8 h -8 z m 8,0 h 8 v 8 h -8 z m 8,0 h 8 v 8 h -8 z m 8,0 h 8 v 8 h -8 z m 8,0 h 8 v 8 h -8 z m 40,0 h 8 v 8 h -8 z m 8,0 h 8 v 8 h -8 z m 8,0 h 8 v 8 h -8 z m 40,0 h 8 v 8 h -8 z m 16,0 h 8 v 8 h -8 z m 32,0 h 8 v 8 h -8 z m -208,8 h 8 v 8 h -8 z m 16,0 h 8 v 8 h -8 z m 8,0 h 8 v 8 h -8 z m 8,0 h 8 v 8 h -8 z m 8,0 h 8 v 8 h -8 z m 32,0 h 8 v 8 h -8 z m 8,0 h 8 v 8 h -8 z m 16,0 h 8 v 8 h -8 z m 8,0 h 8 v 8 h -8 z m 16,0 h 8 v 8 h -8 z m 8,0 h 8 v 8 h -8 z m 16,0 h 8 v 8 h -8 z m 8,0 h 8 v 8 h -8 z m 16,0 h 8 v 8 h -8 z m 16,0 h 8 v 8 h -8 z m 32,0 h 8 v 8 h -8 z m -216,8 h 8 v 8 h -8 z m 16,0 h 8 v 8 h -8 z m 8,0 h 8 v 8 h -8 z m 8,0 h 8 v 8 h -8 z m 8,0 h 8 v 8 h -8 z m 8,0 h 8 v 8 h -8 z m 8,0 h 8 v 8 h -8 z m 24,0 h 8 v 8 h -8 z m 16,0 h 8 v 8 h -8 z m 16,0 h 8 v 8 h -8 z m 24,0 h 8 v 8 h -8 z m 8,0 h 8 v 8 h -8 z m 8,0 h 8 v 8 h -8 z m 8,0 h 8 v 8 h -8 z m 8,0 h 8 v 8 h -8 z m 8,0 h 8 v 8 h -8 z m 8,0 h 8 v 8 h -8 z m 8,0 h 8 v 8 h -8 z m 16,0 h 8 v 8 h -8 z m 8,0 h 8 v 8 h -8 z m 8,0 h 8 v 8 h -8 z m -160,8 h 8 v 8 h -8 z m 8,0 h 8 v 8 h -8 z m 56,0 h 8 v 8 h -8 z m 8,0 h 8 v 8 h -8 z m 8,0 h 8 v 8 h -8 z m 16,0 h 8 v 8 h -8 z m 32,0 h 8 v 8 h -8 z m 8,0 h 8 v 8 h -8 z m 8,0 h 8 v 8 h -8 z m 8,0 h 8 v 8 h -8 z m 8,0 h 8 v 8 h -8 z m -224,8 h 8 v 8 h -8 z m 8,0 h 8 v 8 h -8 z m 8,0 h 8 v 8 h -8 z m 8,0 h 8 v 8 h -8 z m 8,0 h 8 v 8 h -8 z m 8,0 h 8 v 8 h -8 z m 8,0 h 8 v 8 h -8 z m 16,0 h 8 v 8 h -8 z m 8,0 h 8 v 8 h -8 z m 8,0 h 8 v 8 h -8 z m 8,0 h 8 v 8 h -8 z m 8,0 h 8 v 8 h -8 z m 24,0 h 8 v 8 h -8 z m 16,0 h 8 v 8 h -8 z m 16,0 h 8 v 8 h -8 z m 8,0 h 8 v 8 h -8 z m 16,0 h 8 v 8 h -8 z m 16,0 h 8 v 8 h -8 z m 8,0 h 8 v 8 h -8 z m 8,0 h 8 v 8 h -8 z m -208,8 h 8 v 8 h -8 z m 48,0 h 8 v 8 h -8 z m 40,0 h 8 v 8 h -8 z m 24,0 h 8 v 8 h -8 z m 8,0 h 8 v 8 h -8 z m 8,0 h 8 v 8 h -8 z m 16,0 h 8 v 8 h -8 z m 8,0 h 8 v 8 h -8 z m 8,0 h 8 v 8 h -8 z m 32,0 h 8 v 8 h -8 z m 24,0 h 8 v 8 h -8 z m -216,8 h 8 v 8 h -8 z m 16,0 h 8 v 8 h -8 z m 8,0 h 8 v 8 h -8 z m 8,0 h 8 v 8 h -8 z m 16,0 h 8 v 8 h -8 z m 16,0 h 8 v 8 h -8 z m 8,0 h 8 v 8 h -8 z m 8,0 h 8 v 8 h -8 z m 8,0 h 8 v 8 h -8 z m 32,0 h 8 v 8 h -8 z m 8,0 h 8 v 8 h -8 z m 8,0 h 8 v 8 h -8 z m 24,0 h 8 v 8 h -8 z m 8,0 h 8 v 8 h -8 z m 8,0 h 8 v 8 h -8 z m 8,0 h 8 v 8 h -8 z m 8,0 h 8 v 8 h -8 z m 16,0 h 8 v 8 h -8 z m 8,0 h 8 v 8 h -8 z m 8,0 h 8 v 8 h -8 z m -224,8 h 8 v 8 h -8 z m 16,0 h 8 v 8 h -8 z m 8,0 h 8 v 8 h -8 z m 8,0 h 8 v 8 h -8 z m 16,0 h 8 v 8 h -8 z m 16,0 h 8 v 8 h -8 z m 8,0 h 8 v 8 h -8 z m 24,0 h 8 v 8 h -8 z m 8,0 h 8 v 8 h -8 z m 8,0 h 8 v 8 h -8 z m 16,0 h 8 v 8 h -8 z m 8,0 h 8 v 8 h -8 z m 8,0 h 8 v 8 h -8 z m 8,0 h 8 v 8 h -8 z m 8,0 h 8 v 8 h -8 z m 40,0 h 8 v 8 h -8 z m 8,0 h 8 v 8 h -8 z m 8,0 h 8 v 8 h -8 z m 8,0 h 8 v 8 h -8 z m -224,8 h 8 v 8 h -8 z m 16,0 h 8 v 8 h -8 z m 8,0 h 8 v 8 h -8 z m 8,0 h 8 v 8 h -8 z m 16,0 h 8 v 8 h -8 z m 16,0 h 8 v 8 h -8 z m 8,0 h 8 v 8 h -8 z m 8,0 h 8 v 8 h -8 z m 24,0 h 8 v 8 h -8 z m 8,0 h 8 v 8 h -8 z m 8,0 h 8 v 8 h -8 z m 8,0 h 8 v 8 h -8 z m 8,0 h 8 v 8 h -8 z m 32,0 h 8 v 8 h -8 z m 8,0 h 8 v 8 h -8 z m 8,0 h 8 v 8 h -8 z m 8,0 h 8 v 8 h -8 z m 8,0 h 8 v 8 h -8 z m 8,0 h 8 v 8 h -8 z m 8,0 h 8 v 8 h -8 z m -216,8 h 8 v 8 h -8 z m 48,0 h 8 v 8 h -8 z m 16,0 h 8 v 8 h -8 z m 8,0 h 8 v 8 h -8 z m 24,0 h 8 v 8 h -8 z m 8,0 h 8 v 8 h -8 z m 16,0 h 8 v 8 h -8 z m 8,0 h 8 v 8 h -8 z m 16,0 h 8 v 8 h -8 z m 16,0 h 8 v 8 h -8 z m 8,0 h 8 v 8 h -8 z m 16,0 h 8 v 8 h -8 z m 8,0 h 8 v 8 h -8 z m 8,0 h 8 v 8 h -8 z m 16,0 h 8 v 8 h -8 z m -216,8 h 8 v 8 h -8 z m 8,0 h 8 v 8 h -8 z m 8,0 h 8 v 8 h -8 z m 8,0 h 8 v 8 h -8 z m 8,0 h 8 v 8 h -8 z m 8,0 h 8 v 8 h -8 z m 8,0 h 8 v 8 h -8 z m 16,0 h 8 v 8 h -8 z m 32,0 h 8 v 8 h -8 z m 16,0 h 8 v 8 h -8 z m 8,0 h 8 v 8 h -8 z m 16,0 h 8 v 8 h -8 z m 16,0 h 8 v 8 h -8 z m 56,0 h 8 v 8 h -8 z"
         id="path8" />
    </g>
  </g>
</svg>
